<svg viewBox="0 0 24 24" fill="none" xmlns="http://www.w3.org/2000/svg">
  <path d="M6.2 10H17.8C18.92 10 19.48 10 19.908 10.218C20.284 10.41 20.59 10.716 20.782 11.092C21 11.52 21 12.08 21 13.2V15.8C21 16.92 21 17.48 20.782 17.908C20.59 18.284 20.284 18.59 19.908 18.782C19.48 19 18.92 19 17.8 19H6.2C5.08 19 4.52 19 4.092 18.782C3.716 18.59 3.41 18.284 3.218 17.908C3 17.48 3 16.92 3 15.8V13.2C3 12.08 3 11.52 3.218 11.092C3.41 10.716 3.716 10.41 4.092 10.218C4.52 10 5.08 10 6.2 10Z" fill="none" stroke="#CCCCCC" stroke-width="2"/>
</svg>
