<svg viewBox="0 0 24 24" xmlns="http://www.w3.org/2000/svg">
  <path d="M6.2 11H17.8C18.676 11 19.119 10.939 19.454 11.109C19.642 11.205 19.795 11.358 19.891 11.546C20.061 11.881 20 12.324 20 13.2V15.8C20 16.676 20.061 17.119 19.891 17.454C19.795 17.642 19.642 17.795 19.454 17.891C19.119 18.061 18.676 18 17.8 18H6.2C5.324 18 4.881 18.061 4.546 17.891C4.358 17.795 4.205 17.642 4.109 17.454C3.938 17.119 4 16.676 4 15.8V13.2C4 12.324 3.938 11.881 4.109 11.546C4.205 11.358 4.358 11.205 4.546 11.109C4.881 10.939 5.324 11 6.2 11Z" fill="white"/>
</svg>