<svg version="1.1" id="Capa_1" xmlns="http://www.w3.org/2000/svg" xmlns:xlink="http://www.w3.org/1999/xlink" width="256px" height="256px" viewBox="0 0 64.325 64.325" xml:space="preserve">
  <g>

    <!-- S (Blue) -->
    <path fill="#4285F4" d="M5.865,34.72c-1.906,0-3.754-0.614-4.957-1.231L0,37.184c1.114,0.616,3.344,1.202,5.602,1.202
      c5.426,0,7.977-2.815,7.977-6.129c0-2.786-1.643-4.604-5.132-5.895c-2.552-0.969-3.666-1.525-3.666-2.786
      c0-1.027,0.938-1.907,2.874-1.907s3.344,0.558,4.135,0.939l0.998-3.607c-1.174-0.528-2.816-0.997-5.045-0.997
      c-4.663,0-7.479,2.58-7.479,5.953c0,2.874,2.141,4.692,5.426,5.836c2.375,0.851,3.314,1.555,3.314,2.785
      C9.004,33.87,7.918,34.72,5.865,34.72z"></path>

    <!-- E (Red) -->
    <polygon fill="#DB4437" points="29.211,34.427 21.088,34.427 21.088,29.735 28.36,29.735 28.36,26.098 
      21.088,26.098 21.088,21.992 28.801,21.992 28.801,18.326 16.6,18.326 16.6,38.093 29.211,38.093"></polygon>

    <!-- O (Yellow outline only) -->
    <circle cx="44.326" cy="28.194" r="11.397" fill="none" stroke="#F4B400" stroke-width="3"></circle>

    <!-- Handle of magnifying glass (Yellow) -->
    <path fill="#F4B400" d="M51.624,36.94l3.937,3.674c-0.006,0.41,0.143,0.816,0.465,1.117
      l5.777,5.394c0.289,0.27,0.655,0.403,1.022,0.403c0.401,0,0.802-0.16,1.097-0.478c0.565-0.604,0.532-1.556-0.072-2.12
      l-5.777-5.393c-0.322-0.301-0.74-0.42-1.146-0.387l-3.885-3.625"></path>

  </g>
</svg>
