<svg width="16" height="16" viewBox="0 0 16 16" fill="none" xmlns="http://www.w3.org/2000/svg">
<g clip-path="url(#clip0_171_673)">
<path d="M14.7146 2.64647C12.9744 0.906815 10.1436 0.906815 8.40394 2.64647L7.99988 3.05031L7.59604 2.64647C5.85639 0.906579 3.02532 0.906579 1.28566 2.64647C-0.418673 4.35081 -0.42974 7.05236 1.26 8.93072C2.80115 10.6433 7.34645 14.3432 7.5393 14.4998C7.67022 14.6063 7.82775 14.6581 7.98434 14.6581C7.98952 14.6581 7.9947 14.6581 7.99964 14.6578C8.16164 14.6654 8.32483 14.6098 8.45999 14.4998C8.65284 14.3432 13.1986 10.6433 14.7402 8.93048C16.4297 7.05236 16.4187 4.35081 14.7146 2.64647ZM13.69 7.98554C12.4884 9.32042 9.18547 12.0735 7.99964 13.0505C6.81381 12.0738 3.51157 9.32089 2.3102 7.98577C1.13143 6.67561 1.12036 4.80974 2.28453 3.64558C2.87909 3.05125 3.65992 2.75385 4.44074 2.75385C5.22156 2.75385 6.00238 3.05101 6.59694 3.64558L7.48514 4.53377C7.59086 4.6395 7.72414 4.7026 7.86401 4.72474C8.091 4.77348 8.33731 4.71014 8.51391 4.53401L9.40258 3.64558C10.5919 2.45668 12.5266 2.45692 13.7152 3.64558C14.8794 4.80974 14.8683 6.67561 13.69 7.98554Z" fill="white"/>
</g>
<defs>
<clipPath id="clip0_171_673">
<rect width="16" height="16" fill="white"/>
</clipPath>
</defs>
</svg>
